HIERARCHY
ROOT root
{
	OFFSET	0	13.1	24.9
	CHANNELS 6  Xposition Yposition Zposition Xrotation Yrotation Zrotation
	JOINT spine_1
	{
		OFFSET	0	9.99999	0
		CHANNELS 3  Xrotation Yrotation Zrotation
		JOINT spine_2
		{
			OFFSET	0	112	-10
			CHANNELS 3  Xrotation Yrotation Zrotation
			JOINT spine_3
			{
				OFFSET	0	206.5	19.3
				CHANNELS 3  Xrotation Yrotation Zrotation
				JOINT spine_4
				{
					OFFSET	0	110.4	14.6
					CHANNELS 3  Xrotation Yrotation Zrotation
					JOINT neck_1
					{
						OFFSET	0	71.8	-50.3
						CHANNELS 3  Xrotation Yrotation Zrotation
						JOINT neck_2
						{
							OFFSET	0	86.2	-25.8
							CHANNELS 3  Xrotation Yrotation Zrotation
							JOINT head_ee
							{
								OFFSET	0	179.8	-8.7
								CHANNELS 3  Xrotation Yrotation Zrotation
								End Site
								{
									OFFSET	1	0	0
								}
							}
						}
					}
					JOINT left_clavicle
					{
						OFFSET	-43.2	22.4	-70.8
						CHANNELS 3  Xrotation Yrotation Zrotation
						JOINT left_shoulder
						{
							OFFSET	-93.9	-5.79999	48.7
							CHANNELS 3  Xrotation Yrotation Zrotation
							JOINT left_elbow
							{
								OFFSET	-291.4	-30.8	15.2
								CHANNELS 3  Xrotation Yrotation Zrotation
								JOINT left_lowarm_twist
								{
									OFFSET	-110.7	-3.89999	13.6
									CHANNELS 3  Xrotation Yrotation Zrotation
									JOINT left_hand
									{
										OFFSET	-110.7	-3.89999	13.6
										CHANNELS 3  Xrotation Yrotation Zrotation
										JOINT left_ee
										{
											OFFSET	-80.8	-5.10001	12.1
											CHANNELS 3  Xrotation Yrotation Zrotation
											End Site
											{
												OFFSET	1	0	0
											}
										}
									}
								}
							}
						}
					}
					JOINT right_clavicle
					{
						OFFSET	43.2	22.4	-70.8
						CHANNELS 3  Xrotation Yrotation Zrotation
						JOINT right_shoulder
						{
							OFFSET	93.9	-5.79999	48.7
							CHANNELS 3  Xrotation Yrotation Zrotation
							JOINT right_elbow
							{
								OFFSET	291.4	-30.8	15.2
								CHANNELS 3  Xrotation Yrotation Zrotation
								JOINT right_lowarm_twist
								{
									OFFSET	110.7	-3.89999	13.6
									CHANNELS 3  Xrotation Yrotation Zrotation
									JOINT right_hand
									{
										OFFSET	110.7	-3.89999	13.6
										CHANNELS 3  Xrotation Yrotation Zrotation
										JOINT right_ee
										{
											OFFSET	80.8	-5.10001	12.1
											CHANNELS 3  Xrotation Yrotation Zrotation
											End Site
											{
												OFFSET	1	0	0
											}
										}
									}
								}
							}
						}
					}
				}
			}
		}
	}
	JOINT left_hip
	{
		OFFSET	-82.8	-127.5	0.300001
		CHANNELS 3  Xrotation Yrotation Zrotation
		JOINT left_knee
		{
			OFFSET	-28.2	-396.7	2.2
			CHANNELS 3  Xrotation Yrotation Zrotation
			JOINT left_ankle
			{
				OFFSET	-11.7	-411.3	35.4
				CHANNELS 3  Xrotation Yrotation Zrotation
				JOINT left_toes
				{
					OFFSET	0	-60	-88.6
					CHANNELS 3  Xrotation Yrotation Zrotation
					JOINT left_foot_ee
					{
						OFFSET	-22.5	-16.5	-42.2
						CHANNELS 3  Xrotation Yrotation Zrotation
						End Site
						{
							OFFSET	1	0	0
						}
					}
				}
			}
		}
	}
	JOINT right_hip
	{
		OFFSET	82.8	-127.5	0.300001
		CHANNELS 3  Xrotation Yrotation Zrotation
		JOINT right_knee
		{
			OFFSET	28.2	-396.7	2.2
			CHANNELS 3  Xrotation Yrotation Zrotation
			JOINT right_ankle
			{
				OFFSET	11.7	-411.3	35.4
				CHANNELS 3  Xrotation Yrotation Zrotation
				JOINT right_toes
				{
					OFFSET	0	-60	-88.6
					CHANNELS 3  Xrotation Yrotation Zrotation
					JOINT right_foot_ee
					{
						OFFSET	22.5	-16.5	-42.2
						CHANNELS 3  Xrotation Yrotation Zrotation
						End Site
						{
							OFFSET	1	0	0
						}
					}
				}
			}
		}
	}
}
MOTION
Frames: 7
Frame Time: 0.02
1169.44427762 743.437 -1719.9670953 -50.769988434 65.5346137643 59.4826485219 9.14407 -0.920475 -4.209 9.15369 -0.651029 -4.25891 9.18205 -0.432352 -4.28659 9.15811 -1.10333 -4.16488 -21.7481 -15.9477 2.49962 -23.6514 -31.892 -5.54858 -0.0 0.0 -0.0 11.4175 -1.45234 22.7141 -35.9979 -18.4053 63.1847 0.240878 -6.80473 0.0143208 70.8168 -2.82556 -8.00982 -1.04185 -5.07641 -9.21235 -0.0 0.0 -0.0 4.21103 -20.9627 -8.53776 90.9487 -58.3317 0.00216152 0.267249 7.54155 -0.0176138 85.2583 4.45748 8.87797 -5.37142 -10.3823 31.8069 0.0 0.0 0.0 26.4093 -59.6758 -3.00132 -43.8081 -0.726637 6.52297 7.76101 10.6017 -1.11254 32.0065 -0.0 -0.0 -0.0 0.0 -0.0 22.0473 -31.976 -14.5349 -13.6484 -0.317224 -2.06557 36.3242 -11.9857 4.5549 13.6676 -0.0 -0.0 0.0 0.0 0.0 
1173.70864735 743.437 -1723.43548548 -49.1265936363 64.8966913297 57.6725816232 9.14407 -0.920475 -4.209 9.15369 -0.651029 -4.25891 9.18205 -0.432352 -4.28659 9.15811 -1.10333 -4.16488 -21.7481 -15.9477 2.49962 -23.6514 -31.892 -5.54858 -0.0 0.0 -0.0 11.4175 -1.45234 22.7141 -35.9979 -18.4053 63.1847 0.240878 -6.80473 0.0143208 70.8168 -2.82556 -8.00982 -1.04185 -5.07641 -9.21235 -0.0 0.0 -0.0 4.21103 -20.9627 -8.53776 90.9487 -58.3317 0.00216152 0.267249 7.54155 -0.0176138 85.2583 4.45748 8.87797 -5.37142 -10.3823 31.8069 0.0 0.0 0.0 26.4093 -59.6758 -3.00132 -43.8081 -0.726637 6.52297 7.76101 10.6017 -1.11254 32.0065 -0.0 -0.0 -0.0 0.0 -0.0 22.0473 -31.976 -14.5349 -13.6484 -0.317224 -2.06557 36.3242 -11.9857 4.5549 13.6676 -0.0 -0.0 0.0 0.0 0.0 
1173.56958095 743.437 -1723.32429794 -49.1784603505 64.9176914917 57.729853543 9.14407 -0.920475 -4.209 9.15369 -0.651029 -4.25891 9.18205 -0.432352 -4.28659 9.15811 -1.10333 -4.16488 -21.7481 -15.9477 2.49962 -23.6514 -31.892 -5.54858 -0.0 0.0 -0.0 11.4175 -1.45234 22.7141 -35.9979 -18.4053 63.1847 0.240878 -6.80473 0.0143208 70.8168 -2.82556 -8.00982 -1.04185 -5.07641 -9.21235 -0.0 0.0 -0.0 4.21103 -20.9627 -8.53776 90.9487 -58.3317 0.00216152 0.267249 7.54155 -0.0176138 85.2583 4.45748 8.87797 -5.37142 -10.3823 31.8069 0.0 0.0 0.0 26.4093 -59.6758 -3.00132 -43.8081 -0.726637 6.52297 7.76101 10.6017 -1.11254 32.0065 -0.0 -0.0 -0.0 0.0 -0.0 22.0473 -31.976 -14.5349 -13.6484 -0.317224 -2.06557 36.3242 -11.9857 4.5549 13.6676 -0.0 -0.0 0.0 0.0 0.0 
1154.8631049 745.493 -1738.3983583 -44.3348719952 62.2873980077 53.2823180742 9.15194 -0.650961 -4.36319 9.16245 -0.372275 -4.39568 9.16962 -0.14521 -4.409 9.14349 -0.839048 -4.33102 -22.0793 -16.4874 2.1527 -24.1567 -32.7494 -6.29508 -0.0 0.0 -0.0 10.9296 4.8518 21.2008 -39.9695 -16.0009 59.8417 0.410559 -11.4962 0.0413273 72.0212 -2.95275 -8.09762 -2.45787 0.697105 -16.3151 -0.0 0.0 -0.0 6.29772 -19.109 -11.7381 90.6244 -53.5986 -2.18246 0.255598 7.21631 -0.0161174 85.3665 4.47046 8.88289 -7.01645 -28.2823 28.4354 0.0 0.0 0.0 64.2647 -48.7564 10.6522 -54.8181 -1.66718 7.93035 -1.9347 -11.0432 0.301744 19.9439 -0.0 -0.0 -0.0 0.0 -0.0 11.9033 -32.4308 -21.1263 -0.105768 -0.00434088 -0.0156506 33.8984 -6.82763 4.29105 5.05643 -0.0 -0.0 0.0 0.0 0.0 
1146.86245548 741.267 -1742.15056048 -47.1141966878 62.1738351167 55.4203240444 9.30958 -0.691855 -4.26938 9.31962 -0.41904 -4.30466 9.33014 -0.208859 -4.31993 9.3052 -0.887876 -4.23302 -20.316 -15.6838 -0.520358 -21.8 -29.9505 -7.65424 -0.0 0.0 -0.0 10.9444 1.844 21.4917 -41.3689 -16.0214 61.9254 0.405167 -11.3491 0.0402595 74.9304 -3.26738 -8.29857 -2.21196 -5.807 -17.6576 -0.0 0.0 -0.0 6.47442 -16.6475 -12.1593 88.5879 -50.8069 -4.81556 0.265615 7.49597 -0.0174 85.2226 4.4532 8.87634 -8.54908 -30.3932 36.384 0.0 0.0 0.0 71.9128 -52.5603 18.219 -57.783 -1.9654 8.27668 -3.19726 -12.0624 0.503386 17.8201 -0.0 -0.0 -0.0 0.0 -0.0 16.9043 -26.4428 -18.4926 -4.05095 -0.145464 -0.60455 38.8927 -14.2473 4.82145 7.36761 -0.0 -0.0 0.0 0.0 0.0 
1091.90213162 736.054 -1771.00028495 -56.9799202538 63.4231701016 63.8518218835 9.80404 -0.655901 -3.14777 9.80944 -0.454375 -3.18308 9.82248 -0.326272 -3.19874 9.80916 -0.827115 -3.10722 -17.9375 -16.9648 3.4963 -19.5854 -34.4674 -3.90925 -0.0 0.0 -0.0 10.5317 1.37653 20.6727 -41.5486 -7.21217 59.0368 0.258616 -7.3006 0.0164988 83.0345 -4.19276 -8.77148 -3.14144 8.16862 -17.2034 -0.0 0.0 -0.0 6.12506 -22.9061 -11.237 81.8028 -52.5658 -19.1816 0.216634 6.12534 -0.0115909 85.4339 4.47855 8.88594 -7.48539 -30.043 29.6633 0.0 0.0 0.0 66.8634 -41.8198 11.3279 -50.731 -1.28643 7.42894 -6.51736 -5.62584 0.997199 19.0258 -0.0 -0.0 -0.0 0.0 -0.0 14.5496 -24.371 -18.8034 -0.754288 -0.0303229 -0.111782 41.11 -7.77497 4.95902 4.28022 -0.0 -0.0 0.0 0.0 0.0 
1071.32964625 736.243 -1790.4387026 -59.8400258778 64.4546404693 67.2204408191 9.38191 -0.772845 -3.13194 9.38718 -0.572088 -3.17471 9.40744 -0.42123 -3.1982 9.39435 -0.9208 -3.09172 -19.3911 -18.2202 3.66002 -21.6137 -36.9083 -5.00281 -0.0 0.0 -0.0 10.011 0.853758 19.6335 -37.9976 -6.13754 59.6724 0.267267 -7.54206 0.0176162 83.1511 -4.20654 -8.77732 -3.64504 6.74493 -21.4713 -0.0 0.0 -0.0 6.15502 -24.2153 -11.1863 82.0737 -52.8164 -20.7921 0.241088 6.81063 -0.0143457 85.3166 4.46448 8.88063 -6.32841 -29.6249 22.9531 0.0 0.0 0.0 64.7909 -38.1552 9.12475 -33.4265 -0.102356 5.05678 -1.13509 -0.318524 0.168522 0.525465 -0.0 -0.0 -0.0 0.0 -0.0 9.80272 -29.6475 -21.2752 0.515159 0.0215557 0.0761155 40.8661 -6.94473 4.93518 -3.9776 0.0 0.0 0.0 0.0 0.0 
